<?xml version="1.0" encoding="utf-8"?>
<?xml-stylesheet type="text/css" href="./svg.min.css"?>
<svg version="1.1" xmlns="http://www.w3.org/2000/svg" xmlns:xlink="http://www.w3.org/1999/xlink" x="0px" y="0px"
	 viewBox="0 0 187.2 79" enable-background="new 0 0 187.2 79" xml:space="preserve">
	<g class='hexagon'>
		<polygon points="34,4 66,20 66,60 34,76 2,60 2,20"  />
	</g>
	<g class='ularium'>
		<path d="M69.9,30.5H74V41c0,3.2,1.5,4.9,4.4,4.9c1.3,0,2.4-0.4,3.1-1.3s1.1-2,1.1-3.6V30.5h4v11.1c0,2.3-0.8,4.3-2.4,5.8
			s-3.6,2.3-6,2.3c-2.5,0-4.5-0.8-6.1-2.3s-2.3-3.5-2.3-5.9V30.5z"/>
		<path d="M89.5,19.8h4.1v29.3h-4.1V19.8z"/>
		<path d="M113.1,30.5h4.1v18.6h-4.1v-3.7c-2,2.8-4.4,4.2-7.4,4.2c-2.5,0-4.7-1-6.5-2.9c-1.8-1.9-2.7-4.3-2.7-7
			c0-2.6,0.9-4.9,2.7-6.8s4-2.9,6.4-2.9c1.5,0,3,0.4,4.3,1.2c1.4,0.8,2.4,1.8,3.2,3.1V30.5z M113.7,39.9c0-1.7-0.6-3.2-1.9-4.4
			c-1.3-1.2-2.8-1.8-4.6-1.8c-1.7,0-3.2,0.6-4.5,1.8c-1.3,1.2-1.9,2.6-1.9,4.2c0,1.8,0.6,3.3,1.9,4.5c1.3,1.2,2.8,1.9,4.6,1.9
			c1.8,0,3.3-0.6,4.6-1.8C113.1,43,113.7,41.5,113.7,39.9z"/>
		<path d="M125.2,30.5v3.8c0.9-1.5,1.8-2.6,2.7-3.3s2-1,3.4-1c0.4,0,1,0.1,1.7,0.3l-1.2,3.9c-0.8-0.2-1.3-0.2-1.5-0.2
			c-1.4,0-2.5,0.5-3.5,1.4s-1.4,2.1-1.4,3.5v10.3h-4.1V30.5H125.2z"/>
		<path d="M133.3,24.4c0-0.8,0.3-1.5,0.9-2.1c0.6-0.6,1.4-0.9,2.2-0.9c0.8,0,1.6,0.3,2.2,0.9c0.6,0.6,0.9,1.3,0.9,2.1
			c0,0.8-0.3,1.5-0.9,2.1s-1.3,0.9-2.2,0.9c-0.9,0-1.6-0.3-2.2-0.9S133.3,25.2,133.3,24.4z M134.4,30.5h4v18.6h-4V30.5z"/>
		<path d="M141.2,30.5h4.1V41c0,3.2,1.5,4.9,4.4,4.9c1.3,0,2.4-0.4,3.1-1.3s1.1-2,1.1-3.6V30.5h4v11.1c0,2.3-0.8,4.3-2.4,5.8
			s-3.6,2.3-6,2.3c-2.5,0-4.5-0.8-6.1-2.3s-2.3-3.5-2.3-5.9V30.5z"/>
		<path d="M159.9,49.1V30.5h4v2.9c1-1.2,1.9-2,2.7-2.6c0.9-0.5,1.9-0.8,3-0.8c1.5,0,2.6,0.3,3.5,0.9s1.5,1.6,2.1,3c1-1.4,2-2.3,3-3
			s2.1-0.9,3.3-0.9c1.5,0,2.9,0.6,4,1.7c1.1,1.1,1.7,2.4,1.7,3.9v13.5h-4.1V36.6c0-2.1-1.1-3.1-3.2-3.1c-1.2,0-2.2,0.5-3.1,1.6
			c-0.8,1.1-1.3,2.4-1.3,3.9v10.1h-4.1v-12c0-2.4-1-3.7-3.1-3.7c-1.2,0-2.3,0.5-3.1,1.5s-1.3,2.2-1.3,3.7v10.5H159.9z"/>
	</g>
	<g class='reg'>
		<path d="M11.5,30.5v3.8c0.9-1.5,1.8-2.6,2.7-3.3s2-1,3.4-1c0.4,0,1,0.1,1.7,0.3L18,34.2c-0.8-0.2-1.3-0.2-1.5-0.2
			c-1.4,0-2.5,0.5-3.5,1.4s-1.4,2.1-1.4,3.5v10.3H7.5V30.5H11.5z"/>
		<path d="M39.6,40.6H23.1c0.4,1.9,1.2,3.3,2.4,4.2c1.3,0.9,2.7,1.3,4.2,1.3c2.3,0,4.3-0.9,5.8-2.8l3,2.2c-2.2,2.8-5.2,4.2-9,4.2
			c-2.9,0-5.3-0.9-7.2-2.8s-2.9-4.3-2.9-7.1c0-2.6,1-4.9,2.9-6.9s4.4-2.9,7.2-2.9c2.8,0,5.2,1,7.1,2.9S39.6,37.4,39.6,40.6z
				M23.5,37.4h11.8c-1.3-2.6-3.3-3.8-5.8-3.8C26.7,33.6,24.7,34.9,23.5,37.4z"/>
		<path d="M57.8,30.5h4v17.9c0,2.6-0.9,4.9-2.8,6.7c-1.9,1.8-4.2,2.8-6.8,2.8c-2,0-3.9-0.5-5.6-1.6s-3-2.7-3.8-4.8h4.2
			c1.3,2,3,3,5.3,3c1.5,0,2.8-0.5,3.9-1.6c1.1-1.1,1.6-2.3,1.6-3.8v-3.5c-2,2.8-4.5,4.1-7.5,4.1c-2.5,0-4.6-1-6.5-2.9
			s-2.8-4.3-2.8-7s0.9-5,2.7-6.9s3.9-2.9,6.4-2.9c3.2,0,5.7,1.5,7.6,4.4V30.5z M58.3,39.8c0-1.7-0.6-3.2-1.9-4.4s-2.8-1.8-4.7-1.8
			c-1.7,0-3.2,0.6-4.5,1.8s-1.9,2.6-1.9,4.2c0,1.7,0.6,3.2,1.9,4.5S50,46,51.8,46c1.8,0,3.3-0.6,4.6-1.8S58.3,41.5,58.3,39.8z"/>
	</g>
</svg>
